<?xml version="1.0" encoding="utf-8"?>
<!-- Svg Vector Icons : http://www.onlinewebfonts.com/icon -->
<!DOCTYPE svg PUBLIC "-//W3C//DTD SVG 1.1//EN" "http://www.w3.org/Graphics/SVG/1.1/DTD/svg11.dtd">
<svg version="1.1" xmlns="http://www.w3.org/2000/svg" xmlns:xlink="http://www.w3.org/1999/xlink" x="0px" y="0px" viewBox="0 0 1000 1000" enable-background="new 0 0 1000 1000" xml:space="preserve">
<metadata> Svg Vector Icons : http://www.onlinewebfonts.com/icon </metadata>
<g><g transform="translate(0.000000,512.000000) scale(0.100000,-0.100000)"><path d="M8893.8,4979.3c-21.1-24.9-44-53.6-51.7-67c-13.4-24.9,113-178.1,147.4-178.1c32.5,0,128.3,99.6,128.3,134c0,38.3-116.8,153.2-155.1,153.2C8945.5,5021.4,8914.9,5002.3,8893.8,4979.3z"/><path d="M8455.4,4803.1c-111.1-109.1-109.1-155.1,1.9-258.5c46-42.1,99.6-78.5,114.9-78.5c53.6,0,201,153.2,201,206.8c0,61.3-143.6,214.4-197.2,214.4C8554.9,4887.4,8501.3,4849.1,8455.4,4803.1z"/><path d="M9138.9,4703.6c-23-28.7-40.2-61.3-40.2-72.7c0-32.6,120.6-145.5,153.2-145.5c32.5,0,134,93.8,134,124.4c0,36.4-124.5,143.6-166.6,143.6C9196.3,4753.4,9159.9,4730.4,9138.9,4703.6z"/><path d="M8064.8,4661.5c-63.2-19.1-191.5-164.7-191.5-216.4c0-63.2,204.9-266.1,270-266.1c23,0,76.6,36.4,124.5,84.2c116.8,116.8,114.9,166.6-15.3,291C8145.2,4657.6,8112.6,4676.8,8064.8,4661.5z"/><path d="M8857.4,4542.8c-59.4-23-160.8-149.3-160.8-199.1c0-51.7,151.3-203,202.9-203c36.4,0,218.3,174.2,218.3,208.7c0,30.6-172.3,212.5-199.1,210.6C8907.2,4560,8880.4,4552.3,8857.4,4542.8z"/><path d="M9418.4,4450.9c-67-70.8-65.1-97.7,15.3-176.2c65.1-63.2,70.8-65.1,120.6-38.3c28.7,17.2,59.4,53.6,68.9,82.3c17.2,46,11.5,59.4-46,118.7c-36.4,36.4-74.7,67-86.2,67C9479.7,4504.5,9447.1,4479.6,9418.4,4450.9z"/><path d="M7586.1,4368.5c-97.6-38.3-229.8-197.2-229.8-275.7c0-17.2,53.6-88.1,118.7-155.1c99.6-105.3,126.4-122.5,183.8-122.5c55.5,0,84.2,17.2,170.4,101.5c141.7,143.6,141.7,195.3-7.7,342.7C7699.1,4376.2,7658.9,4395.3,7586.1,4368.5z"/><path d="M8359.6,4190.5c-116.8-116.8-114.9-166.6,17.2-291c53.6-53.6,114.9-103.4,134-111c78.5-26.8,243.2,122.5,243.2,222.1c0,61.3-206.8,264.2-270,264.2C8461.1,4274.7,8407.5,4238.3,8359.6,4190.5z"/><path d="M9115.9,4142.6c-51.7-49.8-93.8-107.2-93.8-126.4c0-47.9,158.9-201,206.8-201c53.6,0,164.7,99.6,195.3,174.2c24.9,55.5,21.1,61.3-68.9,153.2c-49.8,51.7-105.3,93.8-120.6,93.8C9221.2,4236.4,9165.7,4194.3,9115.9,4142.6z"/><path d="M9667.3,4182.8c-28.7-28.7-51.7-63.2-51.7-74.7c0-11.5,34.5-51.7,78.5-91.9c70.8-65.1,80.4-67,118.7-42.1c23,15.3,55.5,49.8,70.8,76.6c26.8,47.9,24.9,53.6-38.3,118.7C9766.9,4249.8,9734.3,4253.6,9667.3,4182.8z"/><path d="M7097.9,3999c-116.8-53.6-233.6-218.3-206.8-292.9c17.2-47.9,147.4-195.3,220.2-247c95.7-70.8,141.7-59.4,268,65.1c147.4,149.3,149.3,195.3,11.5,342.7c-91.9,95.7-180,160.8-220.2,158.9C7163,4023.9,7130.5,4012.4,7097.9,3999z"/><path d="M7911.6,3834.3c-88.1-86.2-107.2-128.3-95.7-210.6c1.9-15.3,51.7-78.5,111-137.9c93.8-97.6,116.8-111,181.9-111c61.3,0,86.2,13.4,166.6,95.7c80.4,78.5,95.7,105.3,95.7,166.6c0,61.3-15.3,86.2-109.1,181.9c-95.7,97.6-118.7,111-183.8,111C8016.9,3930.1,7992,3916.7,7911.6,3834.3z"/><path d="M9529.5,3891.8c-51.7-19.1-181.9-164.7-181.9-201c0-51.7,153.2-201,206.8-201c57.4,0,214.4,149.3,214.4,204.9c0,30.6-172.3,220.2-195.3,214.4C9569.7,3909,9550.5,3901.4,9529.5,3891.8z"/><path d="M4601.2,3753.9c-36.4-180-166.6-570.6-273.8-819.4c-300.6-704.6-830.9-1527.9-1428.3-2221C2830.2,635,2587.1,367,2359.2,120c-597.4-647.1-848.2-926.7-986-1100.9c-337-430.8-543.7-838.6-633.7-1257.9c-38.3-176.1-42.1-520.8-9.6-695c26.8-130.2,30.6-137.9,183.8-294.9l158.9-160.8l317.8,170.4l317.8,170.4l155.1,268c467.2,800.3,1028.1,1671.5,1527.9,2374.1C3936.9,363.2,4208.8,870.5,4450,1575.1c233.6,687.3,340.8,1476.2,264.2,1962.5c-32.6,218.3-59.4,335.1-74.7,335.1C4631.9,3872.6,4614.6,3819,4601.2,3753.9z"/><path d="M8763.6,3794.1c-122.5-113-118.7-168.5,15.3-300.6c134-132.1,187.6-134,298.7-13.4c42.1,45.9,78.5,103.4,78.5,126.4c0,26.8-44,86.2-111,155.1c-68.9,67-128.3,111-155.1,111C8867,3872.6,8809.6,3836.3,8763.6,3794.1z"/><path d="M6500.5,3522.3c-105.3-107.2-120.6-130.2-120.6-195.3c0-65.1,15.3-88.1,130.2-204.9c116.8-114.9,139.8-130.2,204.9-130.2c65.1,0,88.1,15.3,195.3,120.6c168.5,170.4,166.6,203-19.1,390.6C6703.5,3688.8,6670.9,3690.8,6500.5,3522.3z"/><path d="M7480.8,3449.5c-166.6-157-164.7-203,13.4-377.2c101.5-99.6,130.2-118.7,189.5-118.7c82.3,0,206.8,97.6,254.7,199.1c28.7,59.4,28.7,74.7,5.7,130.2c-15.3,34.5-74.7,109.1-134,164.6C7666.6,3581.6,7620.6,3581.6,7480.8,3449.5z"/><path d="M8357.7,3388.2c-141.7-143.6-141.7-195.3,9.6-342.7c59.4-59.3,128.3-113,151.3-118.7c111-34.5,337,199.1,298.7,308.3c-5.7,19.1-59.3,84.2-118.7,145.5C8554.9,3529.9,8501.3,3529.9,8357.7,3388.2z"/><path d="M9175.3,3420.8c-57.4-49.8-114.9-137.8-114.9-180c0-11.5,47.9-72.8,109.1-135.9c132.1-139.8,181.9-147.4,292.9-40.2c120.6,114.9,118.7,155.1-11.5,291C9324.6,3487.8,9271,3501.2,9175.3,3420.8z"/><path d="M6102.3,3223.6c-21.1-9.6-84.2-65.1-137.9-122.5c-84.2-90-101.5-118.7-101.5-178.1c0-61.3,17.2-88.1,141.7-216.3c132.1-134,149.3-145.5,222.1-145.5s90,11.5,193.4,118.7c97.7,99.6,113,126.4,113,187.6c0,63.2-17.2,88.1-137.9,212.5C6251.6,3225.5,6184.6,3258,6102.3,3223.6z"/><path d="M6998.3,3024.5c-105.3-107.2-120.6-130.2-120.6-195.3c0-65.1,15.3-88.1,130.2-204.9c113-111,141.7-130.2,199.1-130.2c126.4,0,321.7,189.5,321.7,314c0,44-28.7,86.2-139.8,197.2C7201.3,3191,7168.7,3193,6998.3,3024.5z"/><path d="M7936.5,2967c-145.5-147.4-143.6-193.4,28.7-363.8c168.5-168.5,210.6-170.4,358-26.8c91.9,88.1,105.3,111.1,105.3,176.1c0,65.1-13.4,88.1-120.6,195.3c-107.2,105.3-130.2,120.6-195.3,120.6C8049.5,3068.5,8024.6,3053.2,7936.5,2967z"/><path d="M8798.1,2947.9c-84.2-86.2-101.5-114.9-101.5-170.4c0-57.4,17.2-84.2,124.5-187.6c114.9-109.1,132.1-118.7,187.6-107.2c82.3,17.2,239.3,174.2,254.6,256.6c11.5,57.4,3.8,70.8-111,185.7C8987.6,3089.6,8943.6,3091.5,8798.1,2947.9z"/><path d="M5457.1,2708.6c-97.6-97.6-111-122.5-111-185.7c0-67,15.3-88.1,158.9-233.6c149.3-149.3,164.7-158.9,241.3-158.9c72.8,0,91.9,11.5,181.9,101.5c168.5,166.6,157,248.9-61.3,459.5c-122.5,116.8-141.7,128.3-216.3,128.3C5577.7,2819.6,5558.6,2810,5457.1,2708.6z"/><path d="M6513.9,2597.5c-180-170.4-172.3-235.5,44-442.3c149.3-143.6,208.7-155.1,333.2-65.1c109.1,78.5,168.5,168.5,168.5,256.6c0,67-15.3,88.1-145.5,216.4c-128.3,124.5-155.1,141.7-216.4,141.7C6636.5,2704.7,6607.8,2687.5,6513.9,2597.5z"/><path d="M7614.9,2630.1c-21.1-9.6-84.3-65.1-137.9-122.5c-86.2-90-101.5-118.7-101.5-178.1c0-63.2,15.3-88.1,130.2-203c118.7-118.7,137.9-130.2,208.7-130.2c128.3,0,312.1,185.7,312.1,317.8c0,40.2-34.5,88.1-139.8,193.4C7743.1,2649.2,7706.7,2666.4,7614.9,2630.1z"/><path d="M8514.7,2591.8c-68.9-30.6-199.1-181.9-212.5-245.1c-11.5-57.4-1.9-72.7,118.7-197.2c70.8-74.7,149.3-139.8,172.3-145.5c55.5-13.4,134,28.7,227.8,124.5c63.2,65.1,76.6,91.9,76.6,155.1c0,68.9-13.4,90-114.9,191.5C8664.1,2591.8,8591.3,2624.3,8514.7,2591.8z"/><path d="M4997.6,2249.1c-90-91.9-111-124.4-111-176.1c0-84.2,55.5-170.4,195.3-296.8c105.3-93.8,126.4-105.3,201-105.3c76.6,0,93.8,9.6,189.5,103.4c93.8,95.7,103.4,113,103.4,189.5c0,74.7-11.5,97.6-90,187.6c-128.3,141.7-227.8,208.7-308.2,208.7C5120.1,2360.1,5091.4,2342.9,4997.6,2249.1z"/><path d="M6012.3,2153.3c-97.6-97.6-111-122.5-111-185.7c0-67,15.3-88.1,158.9-233.6c136-135.9,168.5-158.9,222.1-158.9c130.2,0,312.1,172.3,312.1,294.8c0,88.1-19.2,116.8-172.3,266.1c-122.5,116.8-141.7,128.3-216.3,128.3C6132.9,2264.4,6113.8,2254.8,6012.3,2153.3z"/><path d="M7155.3,2170.6c-21.1-9.6-84.2-65.1-137.9-122.5c-84.2-90-101.5-118.7-101.5-178.1c0-61.3,17.2-88.1,141.7-216.3c128.3-130.2,149.3-145.5,216.3-145.5c134,0,312.1,178.1,312.1,312.1c0,55.5-21.1,86.2-137.9,206.8C7304.7,2172.5,7237.7,2205,7155.3,2170.6z"/><path d="M8112.6,2132.3c-21.1-9.6-84.2-65.1-137.9-122.5c-86.2-90-101.5-118.7-101.5-178.1c0-63.2,15.3-88.1,130.2-202.9c118.7-118.7,137.9-130.2,208.7-130.2c130.2,0,312.1,185.7,312.1,321.7c0,42.1-30.6,84.3-141.7,191.5C8239,2151.4,8200.7,2168.6,8112.6,2132.3z"/><path d="M4618.5,1649.8l-78.5-252.7l82.3-84.2c143.6-145.5,243.1-145.5,392.5,5.7c90,90,101.5,109.1,101.5,181.9c0,76.6-9.6,91.9-158.9,241.2C4727.6,1971.4,4720,1969.5,4618.5,1649.8z"/><path d="M5552.8,1693.8c-90-91.9-111-124.5-111-176.2c0-84.2,51.7-160.8,199.1-291c170.4-151.3,220.2-151.3,377.2-1.9c103.4,97.6,113,114.9,113,189.5s-11.5,95.7-118.7,208.7C5801.7,1848.9,5721.3,1860.4,5552.8,1693.8z"/><path d="M6567.6,1598.1c-97.6-97.6-111.1-122.5-111.1-185.7c0-67,15.3-88.1,158.9-233.6c143.6-143.6,166.6-158.9,231.7-158.9c61.3,0,88.1,15.3,185.7,109.1c105.3,99.6,113,113,113,193.4c0,84.2-7.7,93.8-149.3,237.4c-141.7,139.8-155.1,149.3-233.6,149.3C6688.2,1709.1,6670.9,1699.6,6567.6,1598.1z"/><path d="M7567,1544.5c-174.2-166.6-166.6-243.2,44-442.3c149.3-143.6,208.7-155.1,333.2-65.1c109.1,78.5,168.5,168.5,168.5,256.6c0,67-15.3,88.1-145.5,216.4c-128.3,124.5-155.1,141.7-216.4,141.7C7689.5,1651.7,7660.8,1634.5,7567,1544.5z"/><path d="M5093.3,1234.3c-101.5-103.4-111-120.6-111-195.3c0-78.5,9.6-91.9,149.3-233.6c143.6-141.7,153.2-149.3,237.4-149.3c80.4,0,93.8,7.7,193.4,113c93.8,97.6,109.1,124.4,109.1,185.7c0,65.1-15.3,88.1-158.9,231.7C5367.1,1330,5346,1345.4,5279,1345.4C5215.8,1345.4,5191,1331.9,5093.3,1234.3z"/><path d="M4383,1016c-59.4-137.8-103.4-256.6-97.6-262.3c30.6-30.6,147.4-3.8,212.5,47.9c174.2,139.8,202.9,266.1,90,390.6c-38.3,42.1-74.7,76.6-82.3,76.6S4442.3,1155.8,4383,1016z"/><path d="M6108,1138.6c-97.6-97.6-111-122.5-111-185.7c0-67,15.3-88.1,158.9-233.6c145.5-143.6,166.6-158.9,233.6-158.9c63.2,0,88.1,13.4,185.7,111c99.6,101.5,111.1,120.6,111.1,191.5c0,70.8-13.4,91.9-118.7,204.9C6356.9,1293.7,6276.5,1305.1,6108,1138.6z"/><path d="M7120.9,1040.9c-93.8-97.7-109.1-124.5-109.1-185.7c0-65.1,15.3-88.1,158.9-231.7c145.5-143.6,166.6-158.9,233.6-158.9c63.2,0,88.1,13.4,185.7,111c101.5,103.4,111,120.6,111,195.3c0,78.5-9.6,91.9-149.3,233.6c-143.6,141.7-153.2,149.3-237.4,149.3C7233.8,1153.9,7220.4,1146.2,7120.9,1040.9z"/><path d="M4637.6,776.7c-105.3-103.4-114.9-122.5-114.9-195.3c0-76.6,11.5-93.8,135.9-224C4804.2,208.1,4886.5,164,4965,194.7c24.9,9.6,91.9,65.1,147.4,122.5c82.3,90,99.6,118.7,99.6,178.1c0,61.3-17.2,88.1-149.3,222.1c-128.3,132.1-158.9,153.2-229.8,162.7C4754.4,891.6,4748.7,887.8,4637.6,776.7z"/><path d="M5648.5,679.1c-101.5-103.4-111-120.6-111-195.3c0-78.5,9.6-91.9,149.3-233.6c141.7-139.8,155.1-149.3,233.6-149.3c74.7,0,91.9,9.6,195.3,111c97.6,97.6,111,122.5,111,185.7c0,67-15.3,88.1-158.9,233.6c-145.5,143.6-166.6,158.9-233.6,158.9C5771.1,790.1,5746.2,776.7,5648.5,679.1z"/><path d="M6663.3,583.3c-97.6-97.6-111-122.5-111-185.7c0-67,15.3-88.1,158.9-233.6C6856.7,20.4,6877.7,5.1,6944.7,5.1c63.2,0,88.1,13.4,185.7,111c101.5,101.5,111,120.6,111,195.3c0,76.6-9.6,90-151.3,231.7c-141.7,141.7-155.1,151.3-231.7,151.3C6783.9,694.4,6764.8,684.8,6663.3,583.3z"/><path d="M4139.8,510.6c-67-132.1-67-135.9-30.6-105.3c44,36.4,91.9,132.1,84.2,168.5C4189.6,591,4166.6,564.2,4139.8,510.6z"/><path d="M4283.4,407.2c-21.1-7.7-80.4-59.4-132.1-111c-82.3-84.2-93.8-107.2-93.8-176.1c0-74.7,11.5-91.9,155.1-235.5c145.5-143.6,162.7-157,235.5-157c70.8,0,88.1,11.5,191.5,118.7c160.8,166.6,153.2,229.8-53.6,428.9C4432.8,424.4,4379.2,447.4,4283.4,407.2z"/><path d="M5192.9,221.5c-166.6-162.7-162.8-225.9,15.3-411.6c210.6-220.2,285.3-229.7,451.9-53.6c91.9,95.7,107.2,122.5,107.2,183.8c0,65.1-15.3,88.1-158.9,231.7s-166.6,158.9-231.7,158.9C5313.5,330.6,5288.6,315.3,5192.9,221.5z"/><path d="M6205.7,125.7c-105.3-99.6-113-112.9-113-193.4c0-84.2,7.7-93.8,149.3-237.4c141.7-139.8,155.1-149.3,233.6-149.3c74.7,0,91.9,9.6,195.3,111c97.6,97.7,111,122.5,111,185.7c0,67-15.3,88.1-158.9,233.6c-143.6,143.6-166.6,158.9-231.7,158.9C6330.2,234.9,6303.3,219.6,6205.7,125.7z"/><path d="M3833.5-46.6c-15.3-3.8-76.6-78.5-135.9-166.6c-122.5-180-122.5-183.8,7.7-329.3c132.1-147.4,227.8-206.8,306.3-191.5c91.9,17.2,281.5,216.3,281.5,294.8c0,124.5-292.9,415.5-407.8,404C3871.8-37,3848.8-40.8,3833.5-46.6z"/><path d="M4727.6-241.9c-107.2-103.4-118.7-120.6-118.7-191.5c0-72.8,13.4-90,158.9-235.5c145.5-145.5,162.7-158.9,235.5-158.9c70.8,0,88.1,11.5,191.4,118.7c160.8,166.6,153.2,229.8-53.6,428.9C4942.1-86.8,4892.3-82.9,4727.6-241.9z"/><path d="M5748.1-331.8c-176.2-166.6-166.6-241.3,53.6-451.9c122.5-118.7,141.7-130.2,216.3-130.2c72.8,0,91.9,9.6,193.4,111c97.6,97.7,111,122.5,111,185.7c0,67-15.3,88.1-158.9,233.6C6020-239.9,5997-224.6,5931.9-224.6C5870.6-224.6,5843.8-239.9,5748.1-331.8z"/><path d="M3331.9-728.2l-147.4-214.4l99.6-101.5c191.5-197.2,256.6-203,421.2-44c107.2,103.4,118.7,120.6,118.7,191.5c0,72.8-13.4,90-153.2,231.7c-84.2,84.2-160.8,153.2-172.3,153.2C3488.9-511.8,3412.3-609.5,3331.9-728.2z"/><path d="M4388.7-601.8c-55.5-19.1-227.8-204.9-239.3-254.6c-17.2-80.4,17.2-139.8,164.7-283.4c199.1-193.4,247-197.2,423.1-26.8c157,151.3,143.6,239.3-68.9,440.4C4538.1-603.7,4469.1-573.1,4388.7-601.8z"/><path d="M5288.6-791.3c-111-105.3-145.5-170.4-124.5-237.4c9.6-32.5,17.2-32.5,111.1-7.7c55.5,15.3,201,36.4,325.5,49.8l224,23l-109.1,112.9C5512.6-645.8,5449.4-636.3,5288.6-791.3z"/><path d="M2962.3-1271.9l-149.3-224l88.1-82.3c128.3-120.6,191.5-116.8,338.9,24.9c166.6,158.9,166.6,231.7-5.7,405.9c-53.6,53.6-103.4,99.6-111,99.6C3117.4-1047.9,3044.7-1149.4,2962.3-1271.9z"/><path d="M3919.6-1065.2c-21.1-9.6-84.2-65.1-137.9-122.5c-105.3-111-122.5-166.6-80.4-248.9c26.8-53.6,172.3-204.9,195.3-204.9c26.8,0,472.9,250.8,472.9,266.1c0,7.6-67,78.5-147.4,158.9C4069-1065.2,4000.1-1030.7,3919.6-1065.2z"/><path d="M5594.9-1130.2c0-7.7,55.5-68.9,124.5-137.9c222.1-220.2,409.7-559.1,503.5-905.6c44-164.7,49.8-222.1,49.8-501.6c0-266.1-5.8-340.8-40.2-469.1c-23-82.3-38.3-155.1-34.5-160.8c15.3-13.4,222.1,153.2,342.7,277.6c235.5,241.2,338.9,486.3,338.9,792.7c0,220.2-44,381-153.2,549.5c-225.9,348.5-532.3,530.4-940.1,555.2C5681.1-1124.5,5594.9-1124.5,5594.9-1130.2z"/><path d="M5202.4-1203c-344.6-99.6-825.2-323.6-1263.6-591.6c-126.4-78.5-486.3-312.1-800.3-520.8c-629.9-419.3-1160.3-744.8-1635.1-1001.3c-172.3-91.9-312.1-172.3-312.1-180c0-5.7,145.5-158.9,325.5-337l325.5-325.5l204.9-5.7c262.3-9.6,497.8,36.4,785,153.2c402.1,160.8,786.9,425,1518.3,1041.5c449.9,379.1,876.9,702.7,1296.2,984.1c149.3,99.6,271.9,191.5,273.8,201c0,36.4-195.3,315.9-285.3,409.7c-99.6,101.5-245.1,212.5-277.6,210.6C5346-1164.7,5277.1-1181.9,5202.4-1203z"/><path d="M3475.5-1520.8c-21.1-3.8-88.1-59.4-147.4-120.6c-130.2-135.9-141.7-208.7-51.7-310.2l53.6-61.3l132.1,84.3c72.7,46,178.1,113,235.5,149.3l101.5,65.1l-72.8,76.6c-61.3,63.2-180,137.9-202.9,128.3C3519.5-1511.2,3498.4-1517,3475.5-1520.8z"/><path d="M2610.1-1819.5c-74.7-120.6-135.9-227.9-135.9-239.3c0-30.6,65.1-61.3,134-61.3c47.9,0,84.2,23,174.2,109.1c103.4,97.6,113,114.9,113,189.5c0,65.1-13.4,97.7-59.4,151.3c-32.5,36.4-67,67-74.7,67S2684.7-1700.8,2610.1-1819.5z"/><path d="M2872.4-2097.1c-88.1-88.1-111-124.4-111-172.3c0-128.3,7.7-128.3,252.7,38.3l231.7,157l-51.7,44c-36.4,30.6-76.6,44-130.2,44C2993-1986.1,2973.8-1997.6,2872.4-2097.1z"/><path d="M2294.1-2334.5c-51.7-88.1-107.2-178.1-122.5-201c-24.9-40.2-24.9-44,5.7-44c19.1,0,86.2,51.7,147.4,113c107.2,107.2,113,116.8,107.2,195.3c-3.8,44.1-15.3,84.2-24.9,88.1C2395.6-2179.4,2345.8-2248.4,2294.1-2334.5z"/><path d="M2433.9-2535.6c-158.9-149.3-151.3-170.4,24.9-61.3c218.3,136,233.6,151.3,143.6,151.3C2543-2445.6,2512.4-2460.9,2433.9-2535.6z"/><path d="M371.9-3427.8L100-3699.6l541.8-541.8l539.9-539.9l273.8,273.8l271.9,271.9l-541.8,541.8L645.7-3154L371.9-3427.8z"/></g></g>
</svg>