<?xml version="1.0" standalone="no"?>
<!DOCTYPE svg PUBLIC "-//W3C//DTD SVG 20010904//EN"
 "http://www.w3.org/TR/2001/REC-SVG-20010904/DTD/svg10.dtd">
<svg version="1.0" xmlns="http://www.w3.org/2000/svg"
 width="250.000000pt" height="214.000000pt" viewBox="0 0 250.000000 214.000000"
 preserveAspectRatio="xMidYMid meet">

<g transform="translate(0.000000,214.000000) scale(0.100000,-0.100000)"
fill="#000000" stroke="none">
<path d="M1407 1910 c-193 -35 -351 -120 -476 -256 -34 -37 -60 -73 -57 -80
17 -45 28 -147 24 -227 -6 -106 -33 -175 -97 -248 -32 -36 -119 -99 -122 -87
0 2 -3 14 -5 28 -2 13 -10 28 -17 32 -9 6 -9 8 0 8 6 0 15 -4 18 -10 11 -18
43 -11 72 16 l28 26 -27 -16 c-43 -25 -67 -20 -83 16 -7 18 -11 37 -8 42 4 5
1 6 -4 3 -14 -9 -16 91 -4 145 5 21 5 36 0 32 -19 -12 -41 -116 -46 -222 l-6
-113 -30 28 c-16 15 -38 42 -48 58 -11 17 -19 26 -19 22 0 -13 21 -50 47 -81
19 -23 21 -31 11 -37 -10 -7 -9 -9 4 -9 9 0 43 -25 74 -56 40 -39 59 -52 65
-43 4 7 1 22 -7 33 -19 27 -18 72 2 80 21 8 34 -1 34 -24 0 -15 11 -8 48 28
66 67 127 94 221 99 74 4 76 4 55 -14 -31 -26 -44 -56 -44 -102 0 -53 -32
-137 -71 -184 -34 -41 -95 -77 -132 -77 -22 0 -23 3 -20 48 4 54 28 128 52
157 16 20 16 20 -5 2 -25 -21 -77 -117 -89 -162 -8 -29 -9 -28 -21 24 -7 29
-18 58 -24 65 -10 8 -10 6 -2 -9 10 -19 15 -66 13 -112 -1 -20 -10 -14 -64 40
-34 34 -87 75 -117 91 l-55 29 60 -59 c33 -32 73 -82 88 -111 l28 -52 -23 -5
c-58 -13 -59 -14 -8 -13 48 1 56 -2 65 -21 5 -12 19 -22 30 -22 25 0 61 -24
75 -50 9 -17 5 -18 -53 -14 -61 4 -62 3 -24 -9 21 -7 35 -15 32 -19 -4 -3 2
-5 12 -5 12 1 17 -4 16 -16 0 -10 2 -16 5 -13 3 4 37 -25 76 -62 39 -38 98
-87 131 -109 60 -40 195 -107 202 -99 2 2 -13 11 -32 21 -42 19 -42 31 0 15
25 -9 85 -20 85 -16 0 1 -42 23 -93 49 -100 51 -250 167 -304 235 -52 65 -38
61 22 -6 132 -146 342 -256 523 -276 58 -6 53 10 -5 19 -78 11 -207 60 -294
112 -93 55 -216 170 -272 255 -41 63 -44 73 -22 82 17 6 19 4 93 -94 225 -300
651 -397 1000 -229 78 38 180 114 244 183 89 97 163 246 192 388 60 291 -62
617 -296 793 -81 61 -193 117 -288 144 -85 25 -256 35 -333 21z m363 -95 c0
-6 17 -19 38 -27 80 -33 87 -37 74 -37 -7 -1 -10 -5 -7 -11 13 -21 -24 -9 -61
21 -22 17 -51 37 -66 45 -35 18 -36 33 -3 26 14 -2 25 -10 25 -17z m60 -12 c0
-7 -39 17 -46 28 -3 6 5 3 20 -6 14 -10 26 -19 26 -22z m139 -63 c34 -28 61
-57 61 -65 0 -8 3 -15 8 -15 4 0 8 -10 8 -23 1 -13 16 -46 33 -74 48 -78 29
-100 -38 -43 -22 19 -23 22 -7 39 15 16 15 19 -2 34 -10 10 -23 17 -28 17 -13
0 -64 96 -64 119 0 11 -12 29 -27 40 -16 11 -23 21 -16 21 7 0 39 -23 72 -50z
m-373 17 c16 -7 46 -23 66 -36 33 -20 36 -26 31 -52 -5 -25 -3 -29 18 -30 63
-2 156 -31 171 -53 5 -7 8 -7 8 2 0 22 17 13 74 -39 64 -58 120 -160 131 -237
7 -56 -12 -148 -44 -210 -15 -28 -20 -32 -21 -17 -5 72 -15 77 -40 19 -23 -53
-119 -152 -134 -137 -3 4 -6 0 -6 -7 0 -7 -3 -10 -7 -7 -3 4 -15 -1 -26 -10
-15 -13 -19 -14 -13 -3 4 8 0 6 -8 -4 -9 -11 -16 -14 -16 -7 0 7 -5 9 -12 5
-15 -10 -138 -12 -138 -3 0 4 -8 6 -17 5 -10 -2 -24 4 -31 13 -12 15 -13 15
-9 0 4 -12 0 -15 -19 -11 -13 2 -24 10 -24 16 0 7 -6 13 -12 13 -7 0 -32 3
-56 7 -41 8 -43 7 -56 -26 l-14 -33 36 -5 c33 -4 37 -8 37 -35 1 -46 11 -54
63 -51 33 2 48 7 50 18 3 16 51 43 60 33 3 -2 11 0 19 6 9 8 13 8 13 0 0 -13
47 -12 77 2 18 8 26 6 40 -12 21 -25 58 -34 83 -21 24 13 60 -15 60 -45 0 -23
3 -24 53 -21 29 1 58 6 64 9 7 4 14 3 18 -3 3 -5 -1 -10 -10 -10 -9 0 -27 -11
-40 -25 -14 -13 -25 -21 -25 -17 0 4 -7 -2 -15 -12 -13 -17 -17 -17 -32 -5
-15 12 -16 12 -11 -2 5 -13 2 -16 -14 -11 -16 4 -19 2 -13 -9 5 -8 5 -11 0 -7
-4 4 -15 2 -23 -5 -13 -10 -15 -9 -8 3 4 8 0 6 -8 -4 -12 -15 -16 -16 -16 -5
0 11 -2 12 -9 1 -4 -8 -12 -14 -17 -14 -5 0 -8 -5 -6 -11 2 -6 -4 -5 -12 3 -9
7 -16 8 -16 3 0 -6 -12 -9 -27 -8 -16 1 -32 -1 -38 -4 -17 -9 -119 -8 -139 2
-13 6 -16 6 -12 -2 4 -6 2 -11 -3 -11 -6 0 -11 6 -12 13 -1 6 -5 1 -9 -13 l-8
-25 -1 27 c-1 14 -7 28 -13 31 -9 2 -5 16 15 43 32 48 34 65 6 90 -15 14 -22
15 -28 6 -11 -18 -49 -2 -92 37 -18 17 -41 31 -50 31 -9 0 -28 9 -42 20 -14
11 -35 20 -48 20 -39 0 -109 48 -109 74 0 13 -9 35 -21 49 -11 15 -27 47 -35
72 -17 49 -34 67 -35 38 0 -20 -26 65 -34 111 -5 32 30 126 53 139 10 6 10 12
2 22 -6 7 -8 24 -5 37 3 13 8 31 9 39 16 71 19 80 27 67 7 -10 9 -9 9 5 0 9 5
17 10 17 6 0 10 6 10 14 0 14 45 56 61 56 4 0 20 -11 36 -24 28 -23 93 -40 93
-24 0 5 5 6 11 2 8 -5 10 1 7 20 -6 33 -1 33 24 0 11 -14 23 -23 26 -20 3 3
-3 15 -14 27 -19 21 -19 21 6 41 16 14 21 22 13 25 -7 3 -13 9 -13 15 0 6 7 8
15 4 9 -3 15 0 15 9 0 8 9 15 21 15 l20 0 -20 -29 c-12 -16 -21 -34 -21 -40 0
-7 -7 -11 -16 -9 -10 2 -19 -2 -21 -8 -2 -6 7 -9 25 -6 17 2 43 -5 65 -17 47
-26 87 -28 87 -3 0 17 -14 27 -72 54 -31 14 -34 28 -16 58 15 23 52 26 94 7z
m180 -68 c9 -16 -10 -31 -30 -23 -13 5 -14 9 -5 20 14 17 25 18 35 3z m184
-47 c0 -13 -2 -14 -17 0 -10 8 -30 18 -45 22 -16 3 -28 10 -28 15 0 4 20 2 45
-7 27 -9 45 -20 45 -30z m-627 24 c26 -20 22 -46 -9 -46 -21 0 -24 3 -19 21 5
14 2 25 -6 30 -11 7 -11 9 1 9 8 -1 23 -7 33 -14z m597 -31 c7 -9 10 -18 7
-22 -8 -7 -37 15 -37 28 0 14 16 11 30 -6z m240 -163 c17 -41 33 -82 35 -93 2
-10 7 -23 10 -29 3 -5 9 -53 12 -107 6 -90 5 -97 -10 -84 -10 7 -17 20 -17 29
0 8 -9 29 -19 46 -11 17 -24 64 -29 104 -6 40 -15 79 -21 86 -12 14 -15 50 -8
81 3 11 6 26 6 34 1 20 5 15 41 -67z m-1370 -886 c0 -11 0 -11 -29 34 l-23 35
26 -30 c14 -16 26 -34 26 -39z"/>
<path d="M1189 1623 c-13 -16 -12 -17 4 -4 9 7 17 15 17 17 0 8 -8 3 -21 -13z"/>
<path d="M1230 1605 c0 -9 6 -12 15 -9 8 4 15 10 15 15 0 5 -7 9 -15 9 -8 0
-15 -7 -15 -15z"/>
<path d="M1458 1598 c3 -14 2 -19 -6 -14 -7 4 -12 3 -12 -2 0 -19 25 -19 45 1
18 19 19 20 1 13 -14 -5 -17 -2 -12 9 3 9 0 15 -8 15 -10 0 -12 -7 -8 -22z"/>
<path d="M1235 1550 c-3 -5 -1 -10 4 -10 6 0 11 5 11 10 0 6 -2 10 -4 10 -3 0
-8 -4 -11 -10z"/>
<path d="M1391 1536 c-17 -18 -21 -30 -16 -43 8 -16 9 -16 12 5 3 13 9 19 15
16 6 -4 8 -2 4 4 -3 6 0 12 9 14 9 2 11 8 7 16 -6 9 -14 6 -31 -12z"/>
<path d="M1295 1087 c-12 -7 -19 -20 -17 -29 2 -10 -1 -25 -6 -35 -11 -19 8
-67 30 -75 20 -8 58 10 58 26 0 8 9 18 20 21 20 6 20 7 -5 27 -14 11 -23 24
-20 29 4 5 1 9 -5 9 -6 0 -10 8 -8 17 4 21 -20 27 -47 10z"/>
<path d="M571 726 c0 -10 -9 -25 -18 -32 -10 -7 -13 -14 -7 -14 18 0 36 27 31
47 -4 17 -5 17 -6 -1z"/>
</g>
</svg>
